# xmcd
#
# Track frame offsets:
#	150
#	15995
#	33461
#	48351
#	60061
#	76817
#	94075
#	107401
#	120569
#	141389
#	153411
#	166540
#	180303
#	197536
#	214198
#	227892
#	239619
#	253293
#	266430
#	279451
#
# Disc length: 4012 seconds
#
# Revision: 0
# Processed by: cddbd v1.5.2PL0 Copyright (c) Steve Scherf et al.
# Submitted via: dBpowerAMP V4.0
#
DISCID=fe0faa14
DTITLE=Varios - Los 100 mejores Boleros de la Historia 3
DYEAR=1900
DGENRE=Blues
TTITLE0=301 La barca (Lucho Gatica)
TTITLE1=302 Tú me acostumbraste (Olga Guillot)
TTITLE2=303 Perfidia (Boleros Bengalíes)
TTITLE3=304 Caminito (Los Panchos y Mari Trini)
TTITLE4=305 Envidia (Antonio Machín)
TTITLE5=306 Voy a perder la cabeza por tu amor (Soneros del Callao)
TTITLE6=307 Perfume de gardenias (Los Reyes)
TTITLE7=308 Una aventura (Vicentico Valdés)
TTITLE8=309 La culpable (Son Boleros)
TTITLE9=310 Sin vergüenza (Johnny Albino)
TTITLE10=311 Quizás, quizás, quizás (Nati Mistral)
TTITLE11=312 Amor perdido (Los Jaibos)
TTITLE12=313 Qué sabes tú (Moncho)
TTITLE13=314 Qué quieres tú de mí (Paula Monsalve)
TTITLE14=315 Te quiero dijiste (Xiomara Alfaro)
TTITLE15=316 Cenizas (Joe Borsani) 
TTITLE16=317 Ni que sí, ni quizás, ni que no (Antonio Machin)
TTITLE17=318 Vendaval sin rumbo (La Sonora Matancera)
TTITLE18=319 Mis noches sin ti (Olga Chorens)
TTITLE19=320 Corazón maldito (Son Boleros)
EXTD=
EXTT0=
EXTT1=
EXTT2=
EXTT3=
EXTT4=
EXTT5=
EXTT6=
EXTT7=
EXTT8=
EXTT9=
EXTT10=
EXTT11=
EXTT12=
EXTT13=
EXTT14=
EXTT15=
EXTT16=
EXTT17=
EXTT18=
EXTT19=
PLAYORDER=
